# xmcd
#
# Track frame offsets: 
#        150
#        17736
#        36050
#        53246
#        72437
#        90260
#        106624
#        121599
#        136339
#        151651
#        168974
#        186800
#        205551
#        220050
#        241058
#        259603
#        273988
#        296350
#        310892
#        328580
#
# Disc length: 4687 seconds
#
# Revision: 0
# Processed by: cddbd v1.5.2PL0 Copyright (c) Steve Scherf et al.
# Submitted via: ExactAudioCopyFreeDBPlugin 1.0
#
DISCID=fe124d14
DTITLE=Various Artist - Classic Soul Anthems Disc 2 - The 70s
DYEAR=2010
DGENRE=Soul
TTITLE0=Marvin Gaye - I Want You
TTITLE1=Barry White - Can't Get Enough Of Your Love
TTITLE2=Diana Ross - Touch Me In The Morning
TTITLE3=Michael Jackson - One Day In Your Life
TTITLE4=Rose Royce - Love Don't Live Here Anymore
TTITLE5=The Commodores - Three Times A Lady
TTITLE6=Isaac Hayes - The Look Of Love
TTITLE7=Al Green - Let's Stay Together
TTITLE8=The Persuaders - Thin Line Between Love And Hate
TTITLE9=Gladys Knight - Midnight Train To Georgia
TTITLE10=Earth Wind And Fire - After The Love Has Gone
TTITLE11=Candi Staton - Young Hearts Run Free
TTITLE12=The Isley Brothers - That Lady
TTITLE13=Chic - My Forbidden Lover
TTITLE14=Patrice Rushen - Forget Me Nots
TTITLE15=Detroit Spinner - I'll Be Around
TTITLE16=Teddy Pendergrass - Love T.K.O.
TTITLE17=Betty Lavette - Your Turn To Cry
TTITLE18=Shirley Brown - Woman To Woman
TTITLE19=The Chi-Lites - Have You Seen Her
EXTD=
EXTT0=
EXTT1=
EXTT2=
EXTT3=
EXTT4=
EXTT5=
EXTT6=
EXTT7=
EXTT8=
EXTT9=
EXTT10=
EXTT11=
EXTT12=
EXTT13=
EXTT14=
EXTT15=
EXTT16=
EXTT17=
EXTT18=
EXTT19=
PLAYORDER=
